<svg width="32" height="32" viewBox="0 0 32 32" fill="none" xmlns="http://www.w3.org/2000/svg">
<path d="M27.0003 16.76V16V15.23L28.9203 13.55C29.2742 13.2381 29.5064 12.811 29.576 12.3444C29.6455 11.8778 29.5478 11.4016 29.3003 11L26.9403 7C26.7649 6.69626 26.5127 6.44398 26.2091 6.26846C25.9054 6.09294 25.561 6.00036 25.2103 6C24.9929 5.99834 24.7767 6.03211 24.5703 6.1L22.1403 6.92C21.7207 6.64121 21.2831 6.39065 20.8303 6.17L20.3203 3.65C20.2288 3.18961 19.9783 2.77604 19.6127 2.4817C19.2471 2.18736 18.7896 2.03101 18.3203 2.04H13.6403C13.171 2.03101 12.7134 2.18736 12.3478 2.4817C11.9822 2.77604 11.7317 3.18961 11.6403 3.65L11.1303 6.17C10.6742 6.3906 10.2332 6.64115 9.81025 6.92L7.43025 6.06C7.22155 6.00562 7.00543 5.98536 6.79025 6C6.43953 6.00036 6.09506 6.09294 5.79142 6.26846C5.48777 6.44398 5.23562 6.69626 5.06025 7L2.70025 11C2.46684 11.401 2.3801 11.8707 2.4549 12.3286C2.5297 12.7865 2.76138 13.2041 3.11025 13.51L5.00025 15.24V16.77L3.11025 18.45C2.75152 18.758 2.51351 19.1831 2.43845 19.6499C2.36339 20.1168 2.45615 20.5951 2.70025 21L5.06025 25C5.23562 25.3037 5.48777 25.556 5.79142 25.7315C6.09506 25.9071 6.43953 25.9996 6.79025 26C7.0076 26.0017 7.22377 25.9679 7.43025 25.9L9.86025 25.08C10.2798 25.3588 10.7174 25.6093 11.1703 25.83L11.6803 28.35C11.7717 28.8104 12.0222 29.224 12.3878 29.5183C12.7534 29.8126 13.211 29.969 13.6803 29.96H18.4003C18.8696 29.969 19.3271 29.8126 19.6927 29.5183C20.0583 29.224 20.3088 28.8104 20.4003 28.35L20.9103 25.83C21.3663 25.6094 21.8073 25.3589 22.2303 25.08L24.6503 25.9C24.8567 25.9679 25.0729 26.0017 25.2903 26C25.641 25.9996 25.9854 25.9071 26.2891 25.7315C26.5927 25.556 26.8449 25.3037 27.0203 25L29.3003 21C29.5337 20.599 29.6204 20.1293 29.5456 19.6714C29.4708 19.2135 29.2391 18.7959 28.8903 18.49L27.0003 16.76ZM25.2103 24L21.7803 22.84C20.9773 23.5201 20.0597 24.0517 19.0703 24.41L18.3603 28H13.6403L12.9303 24.45C11.9487 24.0816 11.036 23.5509 10.2303 22.88L6.79025 24L4.43025 20L7.15025 17.6C6.96535 16.5649 6.96535 15.5051 7.15025 14.47L4.43025 12L6.79025 8L10.2203 9.16C11.0232 8.47989 11.9409 7.94826 12.9303 7.59L13.6403 4H18.3603L19.0703 7.55C20.0518 7.91842 20.9645 8.44914 21.7703 9.12L25.2103 8L27.5703 12L24.8503 14.4C25.0352 15.4351 25.0352 16.4949 24.8503 17.53L27.5703 20L25.2103 24Z" fill="white"/>
<path d="M16 22C14.8133 22 13.6533 21.6481 12.6666 20.9888C11.6799 20.3295 10.9109 19.3925 10.4567 18.2961C10.0026 17.1997 9.88378 15.9933 10.1153 14.8295C10.3468 13.6656 10.9182 12.5965 11.7574 11.7574C12.5965 10.9182 13.6656 10.3468 14.8295 10.1153C15.9933 9.88378 17.1997 10.0026 18.2961 10.4567C19.3925 10.9108 20.3295 11.6799 20.9888 12.6666C21.6481 13.6533 22 14.8133 22 16C22.008 16.7902 21.8583 17.574 21.5596 18.3056C21.2609 19.0371 20.8193 19.7018 20.2605 20.2605C19.7018 20.8193 19.0371 21.2609 18.3056 21.5596C17.574 21.8583 16.7902 22.008 16 22V22ZM16 12C15.4713 11.9877 14.9457 12.0827 14.4548 12.2794C13.9639 12.4761 13.5181 12.7702 13.1442 13.1442C12.7702 13.5181 12.4761 13.9639 12.2794 14.4548C12.0827 14.9457 11.9877 15.4713 12 16C11.9877 16.5287 12.0827 17.0543 12.2794 17.5452C12.4761 18.0361 12.7702 18.4819 13.1442 18.8558C13.5181 19.2298 13.9639 19.5239 14.4548 19.7206C14.9457 19.9173 15.4713 20.0123 16 20C16.5287 20.0123 17.0543 19.9173 17.5452 19.7206C18.0361 19.5239 18.4819 19.2298 18.8558 18.8558C19.2298 18.4819 19.524 18.0361 19.7206 17.5452C19.9173 17.0543 20.0123 16.5287 20 16C20.0123 15.4713 19.9173 14.9457 19.7206 14.4548C19.524 13.9639 19.2298 13.5181 18.8558 13.1442C18.4819 12.7702 18.0361 12.4761 17.5452 12.2794C17.0543 12.0827 16.5287 11.9877 16 12Z" fill="white"/>
</svg>
