<svg width="50" height="50" viewBox="0 0 50 50" fill="none" xmlns="http://www.w3.org/2000/svg">
<path d="M27.2652 34.4141L27.9683 3.16406C28.0074 2.30469 27.2652 1.5625 26.4058 1.5625H21.8355C20.9371 1.5625 20.234 2.30469 20.273 3.16406L20.9762 34.4141C21.0152 35.2734 21.6793 35.9375 22.5387 35.9375H25.6637C26.523 35.9375 27.2262 35.2734 27.2652 34.4141Z" fill="#F44336"/>
<path opacity="0.2" d="M25 19.5313C25.1172 18.7891 24.8047 9.2969 24.8047 9.2969C24.8047 9.2969 24.8437 7.92971 23.7109 7.81253C22.6172 7.69534 22.2266 8.71096 22.2266 9.41409C22.2266 10.1172 22.3828 17.8125 22.4609 18.5157C22.5 19.2188 23.2031 19.961 23.8672 20.1563C24.5312 20.3516 24.9219 20.0782 25 19.5313Z" fill="white"/>
<path opacity="0.2" d="M23.2812 6.52344C23.9932 6.52344 24.5703 5.9463 24.5703 5.23437C24.5703 4.52245 23.9932 3.94531 23.2812 3.94531C22.5693 3.94531 21.9922 4.52245 21.9922 5.23437C21.9922 5.9463 22.5693 6.52344 23.2812 6.52344Z" fill="white"/>
<path d="M25.0391 48.4375C27.6279 48.4375 29.7266 46.3388 29.7266 43.75C29.7266 41.1612 27.6279 39.0625 25.0391 39.0625C22.4502 39.0625 20.3516 41.1612 20.3516 43.75C20.3516 46.3388 22.4502 48.4375 25.0391 48.4375Z" fill="#CC3333"/>
<path d="M24.375 47.7734C26.5971 47.7734 28.3984 45.9721 28.3984 43.75C28.3984 41.5279 26.5971 39.7266 24.375 39.7266C22.1529 39.7266 20.3516 41.5279 20.3516 43.75C20.3516 45.9721 22.1529 47.7734 24.375 47.7734Z" fill="#F44336"/>
<path opacity="0.2" d="M22.0704 42.3438C22.5392 41.6407 23.5548 41.0547 24.6095 40.8985C24.8829 40.8594 25.1173 40.8594 25.3517 40.9375C25.5079 41.0157 25.6642 41.1719 25.547 41.3282C25.4688 41.4844 25.2735 41.5235 25.1173 41.5625C24.1407 41.836 23.2423 42.5 22.6954 43.2813C22.5001 43.5938 22.1485 44.4141 21.7579 44.2188C21.3673 43.9453 21.4845 43.2032 22.0704 42.3438Z" fill="white"/>
<path d="M28.0859 1.5625H26.4062C27.3047 1.5625 28.0078 2.30469 27.9687 3.16406L27.2656 34.4141C27.2266 35.2734 26.5625 35.9375 25.7031 35.9375H27.3437C28.2031 35.9375 28.9062 35.2734 28.9062 34.4141L29.6094 3.16406C29.6875 2.30469 28.9453 1.5625 28.0859 1.5625Z" fill="#CC3333"/>
</svg>
