<svg width="211" height="123" viewBox="0 0 211 123" fill="none" xmlns="http://www.w3.org/2000/svg">
<g filter="url(#filter0_di_9_305)">
<path d="M11 68.4464C11 35.0628 38.0628 8 71.4463 8H149.372C177.641 8 200.558 30.9168 200.558 59.186V59.186C200.558 87.4552 177.641 110.372 149.372 110.372H11V68.4464Z" fill="white"/>
<path d="M9.7407 110.372V111.631H11H149.372C178.337 111.631 201.817 88.1507 201.817 59.186C201.817 30.2213 178.337 6.7407 149.372 6.7407H71.4463C37.3673 6.7407 9.7407 34.3673 9.7407 68.4464V110.372Z" stroke="black" stroke-opacity="0.1" stroke-width="2.5186"/>
</g>
<path d="M65.2707 60.6204L61.419 75.1859H54.8446L48.6465 51.2346H54.4904L57.5452 65.4018C57.6928 66.0806 57.8403 66.7668 57.9879 67.4604C58.1355 68.154 58.2831 68.8476 58.4306 69.5412C58.5782 68.8329 58.711 68.1245 58.8291 67.4161C58.9471 66.7078 59.1021 66.0068 59.2939 65.3132L63.0571 51.2346H69.7201L73.3946 65.3132C73.4979 65.6969 73.6234 66.2429 73.771 66.9513C73.9333 67.6449 74.1104 68.5082 74.3022 69.5412C74.4646 68.8329 74.6195 68.1319 74.7671 67.4383C74.9294 66.7299 75.0844 66.0216 75.2319 65.3132L78.3753 51.2346H84.1307L77.844 75.1859H71.2696L67.4622 60.5761C67.3736 60.2367 67.2408 59.6611 67.0637 58.8495C66.8866 58.0231 66.6727 56.9605 66.4218 55.6619C66.2299 56.4883 66.0455 57.3147 65.8684 58.1411C65.6913 58.9675 65.4921 59.7939 65.2707 60.6204ZM92.7637 75.6286C90.4468 75.6286 88.639 75.0014 87.3404 73.7471C86.0417 72.4779 85.3924 70.6997 85.3924 68.4123C85.3924 65.933 86.1967 64.0515 87.8053 62.7676C89.4286 61.4837 91.775 60.8122 94.8445 60.7532L100.002 60.6646V59.4471C100.002 57.8829 99.7292 56.7244 99.1832 55.9718C98.6372 55.2044 97.7444 54.8207 96.5047 54.8207C95.3537 54.8207 94.5051 55.0863 93.9591 55.6176C93.4278 56.1341 93.0958 56.9974 92.963 58.2075L86.4771 57.8976C87.2887 53.1605 90.7198 50.7919 96.7704 50.7919C99.7956 50.7919 102.127 51.5372 103.765 53.0277C105.403 54.5182 106.222 56.6359 106.222 59.3807V68.1024C106.222 69.4453 106.37 70.375 106.665 70.8915C106.975 71.3933 107.484 71.6441 108.193 71.6441C108.665 71.6441 109.122 71.5999 109.565 71.5113V74.876C108.798 75.0679 108.141 75.208 107.595 75.2966C107.049 75.3999 106.377 75.4515 105.581 75.4515C104.016 75.4515 102.858 75.0679 102.105 74.3005C101.367 73.5331 100.925 72.4041 100.777 70.9136H100.644C99.7735 72.4779 98.6815 73.6585 97.3681 74.4554C96.0546 75.2376 94.5199 75.6286 92.7637 75.6286ZM100.002 64.0957L96.8146 64.14C95.3537 64.2138 94.328 64.3687 93.7377 64.6049C93.1327 64.8705 92.6678 65.2689 92.3432 65.8002C92.0332 66.3315 91.8783 67.0398 91.8783 67.9253C91.8783 69.0616 92.1366 69.9101 92.6531 70.4709C93.1843 71.0169 93.8853 71.29 94.756 71.29C95.73 71.29 96.6228 71.0243 97.4345 70.4931C98.2314 69.9618 98.8585 69.2313 99.316 68.3016C99.7735 67.3571 100.002 66.361 100.002 65.3132V64.0957ZM118.685 42.3359V46.9181H112.465V42.3359H118.685ZM118.685 51.2346V75.1859H112.465V51.2346H118.685ZM136.46 74.8317C134.955 75.3335 133.206 75.5844 131.214 75.5844C129.384 75.5844 127.975 75.09 126.986 74.1012C125.997 73.0977 125.503 71.5851 125.503 69.5633V55.4405H122.47V51.2346H125.813L127.761 45.6121H131.657V51.2346H136.195V55.4405H131.657V67.881C131.657 69.0468 131.878 69.9101 132.321 70.4709C132.764 71.0169 133.45 71.29 134.38 71.29C134.822 71.29 135.516 71.1867 136.46 70.9801V74.8317ZM146.488 68.4344V75.1859H140.091V68.4344H146.488ZM159.106 68.4344V75.1859H152.708V68.4344H159.106Z" fill="black"/>
<defs>
<filter id="filter0_di_9_305" x="0.925654" y="0.444252" width="209.706" height="122.521" filterUnits="userSpaceOnUse" color-interpolation-filters="sRGB">
<feFlood flood-opacity="0" result="BackgroundImageFix"/>
<feColorMatrix in="SourceAlpha" type="matrix" values="0 0 0 0 0 0 0 0 0 0 0 0 0 0 0 0 0 0 127 0" result="hardAlpha"/>
<feOffset dy="2.5186"/>
<feGaussianBlur stdDeviation="3.7779"/>
<feColorMatrix type="matrix" values="0 0 0 0 0 0 0 0 0 0 0 0 0 0 0 0 0 0 0.2 0"/>
<feBlend mode="hard-light" in2="BackgroundImageFix" result="effect1_dropShadow_9_305"/>
<feBlend mode="normal" in="SourceGraphic" in2="effect1_dropShadow_9_305" result="shape"/>
<feColorMatrix in="SourceAlpha" type="matrix" values="0 0 0 0 0 0 0 0 0 0 0 0 0 0 0 0 0 0 127 0" result="hardAlpha"/>
<feOffset dx="-2.5186" dy="-7.55579"/>
<feComposite in2="hardAlpha" operator="arithmetic" k2="-1" k3="1"/>
<feColorMatrix type="matrix" values="0 0 0 0 0 0 0 0 0 0 0 0 0 0 0 0 0 0 0.1 0"/>
<feBlend mode="hard-light" in2="shape" result="effect2_innerShadow_9_305"/>
</filter>
</defs>
</svg>
